<svg id="Capa_1" data-name="Capa 1" xmlns="http://www.w3.org/2000/svg" viewBox="0 0 496 496"><defs><style>.cls-1{fill:#fff;}</style></defs><path class="cls-1" d="M248,0C111,0,0,111,0,248S111,496,248,496,496,385,496,248C495.84,111.1,384.9.16,248,0Zm0,480C119.87,480,16,376.13,16,248S119.87,16,248,16,480,119.87,480,248,376.07,479.86,248,480Z"/><path class="cls-1" d="M361.14,134.86a8,8,0,0,0-11.32,0L248,236.69,146.18,134.86A8,8,0,0,0,134.67,146l.19.2L236.69,248,134.86,349.82A8,8,0,0,0,146,361.33l.2-.19L248,259.31,349.82,361.14a8,8,0,0,0,11.32-11.32L259.31,248,361.14,146.18A8,8,0,0,0,361.14,134.86Z"/></svg>