{
	"asset":{
		"version":"2.0",
		"generator":"Created using the official Cinema 4D glTF Exporter 1.000x284978"
	},
	"scenes":[{
		"nodes":[0]
	}],
	"nodes":[{
		"name":"Default",
		"translation":[-0.25328174233436587,
		-0.24143049120903016,
		0.8237621784210205],
		"rotation":[0.0,
		0.0,
		0.0,
		-1.0],
		"scale":[1.0,
		1.0,
		1.0],
		"mesh":0
	}],
	"materials":[{
		"pbrMetallicRoughness":{
			"baseColorTexture":{
				"index":0
			},
			"baseColorFactor":[0.800000011920929,
			0.800000011920929,
			0.800000011920929,
			1.0],
			"metallicFactor":1.0,
			"roughnessFactor":0.25
		},
		"normalTexture":{
			"index":1,
			"scale":1.0
		},
		"emissiveFactor":[0.0,
		0.0,
		0.0],
		"doubleSided":false,
		"alphaMode":"OPAQUE",
		"name":"Heart"
	}],
	"meshes":[{
		"name":"Default",
		"primitives":[{
			"attributes":{
				"POSITION":1,
				"NORMAL":2,
				"TEXCOORD_0":3
			},
			"indices":0,
			"material":0
		}]
	}],
	"accessors":[{
		"bufferView":0,
		"type":"SCALAR",
		"componentType":5123,
		"count":28098,
		"byteOffset":0,
		"min":[0],
		"max":[5057]
	},
	{
		"bufferView":1,
		"type":"VEC3",
		"componentType":5126,
		"count":5058,
		"byteOffset":0,
		"min":[-0.059958960860967639,
		0.6401085257530212,
		-1.1623296737670899],
		"max":[0.1238129511475563,
		0.8892486691474915,
		-1.024847388267517]
	},
	{
		"bufferView":1,
		"type":"VEC3",
		"componentType":5126,
		"count":5058,
		"byteOffset":12,
		"min":[-0.9996265769004822,
		-0.9992693662643433,
		-0.9990890622138977],
		"max":[0.999937891960144,
		0.9998669624328613,
		0.9993648529052734]
	},
	{
		"bufferView":1,
		"type":"VEC2",
		"componentType":5126,
		"count":5058,
		"byteOffset":24,
		"min":[0.0019499999471008778,
		0.0019600000232458116],
		"max":[0.7220500111579895,
		0.9980499744415283]
	}],
	"bufferViews":[{
		"buffer":0,
		"byteOffset":0,
		"byteLength":56196,
		"target":34963
	},
	{
		"buffer":0,
		"byteOffset":56196,
		"byteLength":161856,
		"target":34962,
		"byteStride":32
	}],
	"buffers":[{
		"uri":"data:application/octet-stream;base64,",
		"byteLength":218052
	}],
	"images":[{
		"uri":"data:image/jpeg;base64,"
	},
	{
		"uri":"data:image/jpeg;base64,"
	}],
	"samplers":[{
		"magFilter":9729,
		"minFilter":9729,
		"wrapS":10497,
		"wrapT":10497
	},
	{
		"magFilter":9729,
		"minFilter":9729,
		"wrapS":10497,
		"wrapT":10497
	}],
	"textures":[{
		"sampler":0,
		"source":0
	},
	{
		"sampler":1,
		"source":1
	}]
}